<svg xmlns="http://www.w3.org/2000/svg" width="96" height="96" viewBox="0 0 48 48" aria-label="SecureChat logo">
  <defs>
    <linearGradient id="g" x1="0" y1="0" x2="1" y2="1">
      <stop offset="0" stop-color="#e91e63"/>
      <stop offset="1" stop-color="#d81b60"/>
    </linearGradient>
    <filter id="s" x="-20%" y="-20%" width="140%" height="140%">
      <feDropShadow dx="0" dy="2" stdDeviation="2" flood-opacity="0.18"/>
    </filter>
  </defs>

  <!-- Tile -->
  <rect x="4" y="4" width="40" height="40" rx="12" fill="#fffc0cb" filter="url(#s)"/>

  <!-- Chat bubble -->
  <path d="M15 18c0-3 2.6-5 5.8-5h11.4C35.4 13 38 15 38 18v6c0 3-2.6 5-5.8 5H25l-5.5 4c-.7.5-1.5-.2-1.2-1l1.5-4H20.8C17.6 28 15 26 15 23v-5z"
        fill="#ffffff" opacity=".98"/>

  <!-- Lock body -->
  <rect x="22.6" y="16.6" width="9" height="7.8" rx="1.6" fill="#ffffff"/>

  <!-- Lock shackle -->
  <path d="M24.6 16.8v-1.2c0-2.3 1.9-4.2 4.2-4.2s4.2 1.9 4.2 4.2v1.2"
        fill="none" stroke="#ffffff" stroke-width="2.4" stroke-linecap="round"/>
</svg>